<?xml version="1.0" encoding="utf-8"?>
<!-- Generator: Adobe Illustrator 14.0.0, SVG Export Plug-In . SVG Version: 6.00 Build 43363)  -->
<!DOCTYPE svg PUBLIC "-//W3C//DTD SVG 1.1//EN" "http://www.w3.org/Graphics/SVG/1.1/DTD/svg11.dtd">
<svg version="1.1" xmlns="http://www.w3.org/2000/svg" xmlns:xlink="http://www.w3.org/1999/xlink" x="0px" y="0px" width="500px"
	 height="500px" viewBox="0 0 500 500" enable-background="new 0 0 500 500" xml:space="preserve">
	<g>
        <!-- contour disque -->
		<path d="M21.726,242.792c0,82.992,67.279,150.273,150.273,150.273c82.994,0,150.272-67.281,150.272-150.273
			c0-82.995-67.278-150.274-150.272-150.274C89.004,92.517,21.726,159.797,21.726,242.792 M200.174,242.792
			c0,15.558-12.612,28.175-28.175,28.175c-15.562,0-28.177-12.617-28.177-28.175c0-15.563,12.615-28.177,28.177-28.177
			C187.563,214.615,200.174,227.229,200.174,242.792"/>
		<circle fill="none" stroke="#3E3D40" stroke-width="0.711" stroke-miterlimit="10" cx="171.999" cy="242.792" r="144.013"/>
		<circle fill="none" stroke="#3E3D40" stroke-width="0.717" stroke-miterlimit="10" cx="171.999" cy="242.791" r="142.121"/>
		<circle fill="none" stroke="#3E3D40" stroke-width="0.724" stroke-miterlimit="10" cx="171.999" cy="242.791" r="140.239"/>
		<circle fill="none" stroke="#3E3D40" stroke-width="0.73" stroke-miterlimit="10" cx="171.999" cy="242.792" r="138.365"/>
		<circle fill="none" stroke="#3E3D40" stroke-width="0.736" stroke-miterlimit="10" cx="171.999" cy="242.791" r="136.501"/>
		<circle fill="none" stroke="#3E3D40" stroke-width="0.743" stroke-miterlimit="10" cx="171.999" cy="242.791" r="134.646"/>
		<circle fill="none" stroke="#3E3D40" stroke-width="0.749" stroke-miterlimit="10" cx="171.999" cy="242.791" r="132.801"/>
		<circle fill="none" stroke="#3E3D40" stroke-width="0.755" stroke-miterlimit="10" cx="171.999" cy="242.791" r="130.966"/>
		<circle fill="none" stroke="#3E3D40" stroke-width="0.762" stroke-miterlimit="10" cx="171.999" cy="242.791" r="129.142"/>
		<circle fill="none" stroke="#3E3D40" stroke-width="0.768" stroke-miterlimit="10" cx="171.999" cy="242.791" r="127.329"/>
		<circle fill="none" stroke="#3E3D40" stroke-width="0.775" stroke-miterlimit="10" cx="171.999" cy="242.791" r="125.528"/>
		<circle fill="none" stroke="#3E3D40" stroke-width="0.781" stroke-miterlimit="10" cx="171.999" cy="242.791" r="123.739"/>
		<circle fill="none" stroke="#3E3D40" stroke-width="0.787" stroke-miterlimit="10" cx="171.999" cy="242.791" r="121.963"/>
		<circle fill="none" stroke="#3E3D40" stroke-width="0.794" stroke-miterlimit="10" cx="171.999" cy="242.791" r="120.2"/>
		<circle fill="none" stroke="#3E3D40" stroke-width="0.8" stroke-miterlimit="10" cx="171.999" cy="242.792" r="118.451"/>
		<circle fill="none" stroke="#3E3D40" stroke-width="0.807" stroke-miterlimit="10" cx="171.999" cy="242.791" r="116.717"/>
		<circle fill="none" stroke="#3E3D40" stroke-width="0.813" stroke-miterlimit="10" cx="171.999" cy="242.791" r="114.998"/>
		<circle fill="none" stroke="#3E3D40" stroke-width="0.819" stroke-miterlimit="10" cx="171.999" cy="242.791" r="113.295"/>
		<circle fill="none" stroke="#3E3D40" stroke-width="0.826" stroke-miterlimit="10" cx="171.999" cy="242.791" r="111.608"/>
		<circle fill="none" stroke="#3E3D40" stroke-width="0.832" stroke-miterlimit="10" cx="171.999" cy="242.791" r="109.939"/>
		<circle fill="none" stroke="#3E3D40" stroke-width="0.838" stroke-miterlimit="10" cx="171.999" cy="242.791" r="108.288"/>
		<circle fill="none" stroke="#3E3D40" stroke-width="0.845" stroke-miterlimit="10" cx="171.999" cy="242.79" r="106.657"/>
		<circle fill="none" stroke="#3E3D40" stroke-width="0.851" stroke-miterlimit="10" cx="171.999" cy="242.791" r="105.044"/>
		<circle fill="none" stroke="#3E3D40" stroke-width="0.858" stroke-miterlimit="10" cx="171.999" cy="242.791" r="103.452"/>
		<circle fill="none" stroke="#3E3D40" stroke-width="0.864" stroke-miterlimit="10" cx="171.999" cy="242.791" r="101.883"/>
		<circle fill="none" stroke="#3E3D40" stroke-width="0.87" stroke-miterlimit="10" cx="171.999" cy="242.791" r="100.337"/>
		<circle fill="none" stroke="#3E3D40" stroke-width="0.877" stroke-miterlimit="10" cx="171.999" cy="242.791" r="98.815"/>
		<circle fill="none" stroke="#3E3D40" stroke-width="0.883" stroke-miterlimit="10" cx="171.999" cy="242.792" r="97.317"/>
		<circle fill="none" stroke="#3E3D40" stroke-width="0.89" stroke-miterlimit="10" cx="171.999" cy="242.791" r="95.845"/>
		<circle fill="none" stroke="#3E3D40" stroke-width="0.896" stroke-miterlimit="10" cx="171.999" cy="242.791" r="94.401"/>
		<circle fill="none" stroke="#3E3D40" stroke-width="0.902" stroke-miterlimit="10" cx="171.999" cy="242.791" r="92.987"/>
		<circle fill="none" stroke="#3E3D40" stroke-width="0.909" stroke-miterlimit="10" cx="171.999" cy="242.791" r="91.602"/>
		<circle fill="none" stroke="#3E3D40" stroke-width="0.915" stroke-miterlimit="10" cx="171.999" cy="242.791" r="90.248"/>
		<circle fill="none" stroke="#3E3D40" stroke-width="0.922" stroke-miterlimit="10" cx="171.999" cy="242.791" r="88.927"/>
		<circle fill="none" stroke="#3E3D40" stroke-width="0.928" stroke-miterlimit="10" cx="171.999" cy="242.791" r="87.641"/>
		<circle fill="none" stroke="#3E3D40" stroke-width="0.934" stroke-miterlimit="10" cx="171.999" cy="242.791" r="86.39"/>
		<circle fill="none" stroke="#3E3D40" stroke-width="0.941" stroke-miterlimit="10" cx="171.999" cy="242.791" r="85.177"/>
		<circle fill="none" stroke="#3E3D40" stroke-width="0.947" stroke-miterlimit="10" cx="171.999" cy="242.79" r="84.003"/>
		<circle fill="none" stroke="#3E3D40" stroke-width="0.953" stroke-miterlimit="10" cx="171.999" cy="242.791" r="82.87"/>
		<circle fill="none" stroke="#3E3D40" stroke-width="0.96" stroke-miterlimit="10" cx="171.999" cy="242.791" r="81.78"/>
		<circle fill="none" stroke="#3E3D40" stroke-width="0.966" stroke-miterlimit="10" cx="171.999" cy="242.791" r="80.733"/>
		<circle fill="none" stroke="#3E3D40" stroke-width="0.973" stroke-miterlimit="10" cx="171.999" cy="242.791" r="79.733"/>
		<circle fill="none" stroke="#3E3D40" stroke-width="0.979" stroke-miterlimit="10" cx="171.999" cy="242.791" r="78.78"/>
		<circle fill="none" stroke="#3E3D40" stroke-width="0.985" stroke-miterlimit="10" cx="171.999" cy="242.791" r="77.877"/>
		<circle fill="none" stroke="#3E3D40" stroke-width="0.992" stroke-miterlimit="10" cx="171.999" cy="242.791" r="77.024"/>
		<circle fill="none" stroke="#3E3D40" stroke-width="0.998" stroke-miterlimit="10" cx="171.999" cy="242.791" r="76.225"/>
		<circle fill="none" stroke="#3E3D40" stroke-width="1.005" stroke-miterlimit="10" cx="171.999" cy="242.791" r="75.481"/>
		<circle fill="none" stroke="#3E3D40" stroke-width="1.011" stroke-miterlimit="10" cx="171.999" cy="242.791" r="74.792"/>
		<circle fill="none" stroke="#3E3D40" stroke-width="1.017" stroke-miterlimit="10" cx="171.999" cy="242.791" r="74.161"/>
		<circle fill="none" stroke="#3E3D40" stroke-width="1.024" stroke-miterlimit="10" cx="171.999" cy="242.791" r="73.59"/>
		<circle fill="none" stroke="#3E3D40" stroke-width="1.03" stroke-miterlimit="10" cx="171.999" cy="242.791" r="73.079"/>
		<circle fill="none" stroke="#3E3D40" stroke-width="1.036" stroke-miterlimit="10" cx="171.999" cy="242.791" r="72.629"/>
		<circle fill="none" stroke="#3E3D40" stroke-width="1.043" stroke-miterlimit="10" cx="171.999" cy="242.791" r="72.244"/>
		<circle fill="none" stroke="#3E3D40" stroke-width="1.049" stroke-miterlimit="10" cx="171.999" cy="242.791" r="71.922"/>
		<circle fill="none" stroke="#3E3D40" stroke-width="1.056" stroke-miterlimit="10" cx="171.999" cy="242.791" r="71.664"/>
		<circle fill="none" stroke="#3E3D40" stroke-width="1.062" stroke-miterlimit="10" cx="171.999" cy="242.791" r="71.473"/>
		<circle fill="none" stroke="#3E3D40" stroke-width="1.068" stroke-miterlimit="10" cx="171.999" cy="242.79" r="71.347"/>
		<circle fill="none" stroke="#3E3D40" stroke-width="1.075" stroke-miterlimit="10" cx="171.999" cy="242.791" r="71.289"/>
		<circle fill="none" stroke="#3E3D40" stroke-width="1.081" stroke-miterlimit="10" cx="171.999" cy="242.791" r="71.297"/>
		<circle fill="none" stroke="#3E3D40" stroke-width="1.088" stroke-miterlimit="10" cx="171.999" cy="242.79" r="71.372"/>
		<circle fill="none" stroke="#3E3D40" stroke-width="1.094" stroke-miterlimit="10" cx="171.999" cy="242.79" r="71.513"/>
		<circle fill="none" stroke="#3E3D40" stroke-width="1.1" stroke-miterlimit="10" cx="171.999" cy="242.791" r="71.72"/>
		<circle fill="none" stroke="#3E3D40" stroke-width="1.107" stroke-miterlimit="10" cx="171.998" cy="242.79" r="71.993"/>
		<circle fill="none" stroke="#3E3D40" stroke-width="1.113" stroke-miterlimit="10" cx="171.999" cy="242.79" r="72.331"/>
		<circle fill="none" stroke="#3E3D40" stroke-width="1.119" stroke-miterlimit="10" cx="171.999" cy="242.791" r="72.732"/>
		<circle fill="none" stroke="#3E3D40" stroke-width="1.126" stroke-miterlimit="10" cx="171.999" cy="242.79" r="73.196"/>
		<circle fill="none" stroke="#3E3D40" stroke-width="1.132" stroke-miterlimit="10" cx="171.999" cy="242.79" r="73.722"/>
		<circle fill="none" stroke="#3E3D40" stroke-width="1.139" stroke-miterlimit="10" cx="171.999" cy="242.791" r="74.308"/>
		<circle fill="none" stroke="#3E3D40" stroke-width="1.145" stroke-miterlimit="10" cx="171.999" cy="242.791" r="74.953"/>
		<circle fill="none" stroke="#3E3D40" stroke-width="1.151" stroke-miterlimit="10" cx="171.999" cy="242.79" r="75.655"/>
		<circle fill="none" stroke="#3E3D40" stroke-width="1.158" stroke-miterlimit="10" cx="171.999" cy="242.79" r="76.414"/>
		<circle fill="none" stroke="#3E3D40" stroke-width="1.164" stroke-miterlimit="10" cx="171.999" cy="242.791" r="77.226"/>
		<circle fill="none" stroke="#3E3D40" stroke-width="1.171" stroke-miterlimit="10" cx="171.999" cy="242.791" r="78.092"/>
		<circle fill="none" stroke="#3E3D40" stroke-width="1.177" stroke-miterlimit="10" cx="171.999" cy="242.791" r="79.007"/>
		<circle fill="none" stroke="#3E3D40" stroke-width="1.183" stroke-miterlimit="10" cx="171.999" cy="242.791" r="79.971"/>
		<circle fill="none" stroke="#3E3D40" stroke-width="1.19" stroke-miterlimit="10" cx="171.999" cy="242.791" r="80.984"/>
		<circle fill="none" stroke="#3E3D40" stroke-width="1.196" stroke-miterlimit="10" cx="171.999" cy="242.79" r="82.04"/>
		<circle fill="none" stroke="#282829" stroke-width="3.475" stroke-miterlimit="10" cx="171.999" cy="242.791" r="122.176"/>
		<!-- fin contour disque -->

		<!-- raie lumière haut -->
		<defs>
            <filter id="Adobe_OpacityMaskFilter_17_" filterUnits="userSpaceOnUse" x="-10.898" y="59.893" width="243.863" height="243.865">
				<feColorMatrix  type="matrix" values="1 0 0 0 0  0 1 0 0 0  0 0 1 0 0  0 0 0 1 0"/>
			</filter>
		</defs>
		<mask maskUnits="userSpaceOnUse" x="-10.898" y="59.893" width="243.863" height="243.865" id="SVGID_52_">
			<g filter="url(#Adobe_OpacityMaskFilter_17_)">
                <linearGradient id="SVGID_53_" gradientUnits="userSpaceOnUse" x1="-946.6987" y1="1450.3389" x2="-946.2695" y2="1450.3389" gradientTransform="matrix(283.9904 -283.9904 -283.9904 -283.9904 680785.625 143271.6719)">
					<stop  offset="0" style="stop-color:#000000"/>
					<stop  offset="0.2" style="stop-color:#000000"/>
					<stop  offset="0.2511" style="stop-color:#393939"/>
					<stop  offset="0.3191" style="stop-color:#7F7F7F"/>
					<stop  offset="0.3805" style="stop-color:#B6B6B6"/>
					<stop  offset="0.433" style="stop-color:#DEDEDE"/>
					<stop  offset="0.4745" style="stop-color:#F6F6F6"/>
					<stop  offset="0.5" style="stop-color:#FFFFFF"/>
					<stop  offset="0.5255" style="stop-color:#F6F6F6"/>
					<stop  offset="0.567" style="stop-color:#DEDEDE"/>
					<stop  offset="0.6195" style="stop-color:#B6B6B6"/>
					<stop  offset="0.6809" style="stop-color:#7F7F7F"/>
					<stop  offset="0.7489" style="stop-color:#393939"/>
					<stop  offset="0.8" style="stop-color:#000000"/>
					<stop  offset="1" style="stop-color:#000000"/>
				</linearGradient>
				<polygon fill="url(#SVGID_53_)" points="-10.898,181.825 111.033,59.893 232.965,181.825 111.033,303.758 				"/>
			</g>
		</mask>
        <linearGradient id="SVGID_54_" gradientUnits="userSpaceOnUse" x1="-946.6987" y1="1450.3389" x2="-946.2695" y2="1450.3389" gradientTransform="matrix(283.9904 -283.9904 -283.9904 -283.9904 680785.625 143271.6719)">
			<stop  offset="0" style="stop-color:#FFFFFF"/>
			<stop  offset="0.2" style="stop-color:#FFFFFF"/>
			<stop  offset="0.5" style="stop-color:#FFFFFF"/>
			<stop  offset="0.8" style="stop-color:#FFFFFF"/>
			<stop  offset="1" style="stop-color:#FFFFFF"/>
		</linearGradient>
		<polyline opacity="0.45" mask="url(#SVGID_52_)" fill="url(#SVGID_54_)" points="111.033,59.893 232.965,181.825 111.033,303.758
			-10.898,181.825 111.033,59.893"/>
		<!-- fin raie lumière haut -->

		<!-- raie lumière bas -->
		<defs>
            <filter id="Adobe_OpacityMaskFilter_20_" filterUnits="userSpaceOnUse" x="110.948" y="181.895" width="243.863" height="243.865">
				<feColorMatrix  type="matrix" values="1 0 0 0 0  0 1 0 0 0  0 0 1 0 0  0 0 0 1 0"/>
			</filter>
		</defs>
		<mask maskUnits="userSpaceOnUse" x="110.948" y="181.895" width="243.863" height="243.865" id="SVGID_61_">
			<g filter="url(#Adobe_OpacityMaskFilter_20_)">
                <linearGradient id="SVGID_62_" gradientUnits="userSpaceOnUse" x1="-951.7314" y1="1450.0352" x2="-951.3022" y2="1450.0352" gradientTransform="matrix(-283.9904 283.9904 283.9904 283.9904 -681784.8125 -141270.6719)">
					<stop  offset="0" style="stop-color:#000000"/>
					<stop  offset="0.2" style="stop-color:#000000"/>
					<stop  offset="0.2511" style="stop-color:#393939"/>
					<stop  offset="0.3191" style="stop-color:#7F7F7F"/>
					<stop  offset="0.3805" style="stop-color:#B6B6B6"/>
					<stop  offset="0.433" style="stop-color:#DEDEDE"/>
					<stop  offset="0.4745" style="stop-color:#F6F6F6"/>
					<stop  offset="0.5" style="stop-color:#FFFFFF"/>
					<stop  offset="0.5255" style="stop-color:#F6F6F6"/>
					<stop  offset="0.567" style="stop-color:#DEDEDE"/>
					<stop  offset="0.6195" style="stop-color:#B6B6B6"/>
					<stop  offset="0.6809" style="stop-color:#7F7F7F"/>
					<stop  offset="0.7489" style="stop-color:#393939"/>
					<stop  offset="0.8" style="stop-color:#000000"/>
					<stop  offset="1" style="stop-color:#000000"/>
				</linearGradient>
				<polygon fill="url(#SVGID_62_)" points="354.811,303.826 232.878,425.76 110.948,303.826 232.878,181.895 				"/>
			</g>
		</mask>
        <linearGradient id="SVGID_63_" gradientUnits="userSpaceOnUse" x1="-951.7314" y1="1450.0352" x2="-951.3022" y2="1450.0352" gradientTransform="matrix(-283.9904 283.9904 283.9904 283.9904 -681784.8125 -141270.6719)">
			<stop  offset="0" style="stop-color:#FFFFFF"/>
			<stop  offset="0.2" style="stop-color:#FFFFFF"/>
			<stop  offset="0.5" style="stop-color:#FFFFFF"/>
			<stop  offset="0.8" style="stop-color:#FFFFFF"/>
			<stop  offset="1" style="stop-color:#FFFFFF"/>
		</linearGradient>
		<polyline opacity="0.45" mask="url(#SVGID_61_)" fill="url(#SVGID_63_)" points="354.811,303.826 232.878,425.76 110.948,303.826
			232.878,181.895 354.811,303.826"/>
        <!-- fin raie lumière bas -->

        <!-- cercle intérieur de couleur -->
		<path fill="#FFE664" d="M93.77,242.792c0,43.158,34.985,78.142,78.143,78.142c43.157,0,78.143-34.984,78.143-78.142
			s-34.985-78.143-78.143-78.143C128.755,164.648,93.77,199.634,93.77,242.792 M200.088,242.792
			c0,15.56-12.612,28.175-28.175,28.175c-15.562,0-28.177-12.615-28.177-28.175c0-15.563,12.615-28.177,28.177-28.177
			C187.477,214.615,200.088,227.229,200.088,242.792"/>

		<path fill="#E95D0F" d="M102.415,229.768c6.062-32.923,34.908-57.868,69.584-57.868s63.523,24.944,69.584,57.868h1.544
			c-6.08-33.767-35.611-59.384-71.129-59.384c-35.517,0-65.049,25.618-71.129,59.384H102.415z"/>
		<text transform="matrix(-0.0912 0.9958 -0.9958 -0.0912 100.2798 234.605)" font-family="'Myriad-Roman'" font-size="4.7229">U</text>
		<text transform="matrix(-0.0425 0.9991 -0.9991 -0.0425 99.9678 238.1167)" font-family="'Myriad-Roman'" font-size="4.7229">N</text>
		<text transform="matrix(0.0162 0.9999 -0.9999 0.0162 99.813 241.7119)" font-family="'Myriad-Roman'" font-size="4.7229">A</text>
		<text transform="matrix(0.0496 0.9988 -0.9988 0.0496 99.8501 244.9077)" font-family="'Myriad-Roman'" font-size="4.7229">U</text>
		<text transform="matrix(0.0932 0.9956 -0.9956 0.0932 100.043 248.4312)" font-family="'Myriad-Roman'" font-size="4.7229">T</text>
		<text transform="matrix(0.1366 0.9906 -0.9906 0.1366 100.3057 251.2178)" font-family="'Myriad-Roman'" font-size="4.7229">H</text>
		<text transform="matrix(0.1866 0.9824 -0.9824 0.1866 100.8022 254.7422)" font-family="'Myriad-Roman'" font-size="4.7229">O</text>
		<text transform="matrix(0.2325 0.9726 -0.9726 0.2325 101.5171 258.3984)" font-family="'Myriad-Roman'" font-size="4.7229">R</text>
		<text transform="matrix(0.2633 0.9647 -0.9647 0.2633 102.2271 261.291)" font-family="'Myriad-Roman'" font-size="4.7229">I</text>
		<text transform="matrix(0.2944 0.9557 -0.9557 0.2944 102.6396 262.8164)" font-family="'Myriad-Roman'" font-size="4.7229">Z</text>
		<text transform="matrix(0.3331 0.9429 -0.9429 0.3331 103.5522 265.7422)" font-family="'Myriad-Roman'" font-size="4.7229">E</text>
		<text transform="matrix(0.3749 0.9271 -0.9271 0.3749 104.4819 268.3682)" font-family="'Myriad-Roman'" font-size="4.7229">D</text>
		<text transform="matrix(0.4073 0.9133 -0.9133 0.4073 105.856 271.6943)" font-family="'Myriad-Roman'" font-size="4.7229"> </text>
		<text transform="matrix(0.4349 0.9005 -0.9005 0.4349 106.4355 273.0078)" font-family="'Myriad-Roman'" font-size="4.7229">P</text>
		<text transform="matrix(0.4752 0.8799 -0.8799 0.4752 107.7354 275.6885)" font-family="'Myriad-Roman'" font-size="4.7229">U</text>
		<text transform="matrix(0.5148 0.8573 -0.8573 0.5148 109.4268 278.7871)" font-family="'Myriad-Roman'" font-size="4.7229">B</text>
		<text transform="matrix(0.5481 0.8364 -0.8364 0.5481 110.9863 281.3594)" font-family="'Myriad-Roman'" font-size="4.7229">L</text>
		<text transform="matrix(0.5723 0.82 -0.82 0.5723 112.46 283.582)" font-family="'Myriad-Roman'" font-size="4.7229">I</text>
		<text transform="matrix(0.5991 0.8007 -0.8007 0.5991 113.3599 284.8828)" font-family="'Myriad-Roman'" font-size="4.7229">C</text>
		<text transform="matrix(0.6242 0.7813 -0.7813 0.6242 115.2773 287.4092)" font-family="'Myriad-Roman'" font-size="4.7228"> </text>
		<text transform="matrix(0.6475 0.762 -0.762 0.6475 116.1724 288.5361)" font-family="'Myriad-Roman'" font-size="4.7228">P</text>
		<text transform="matrix(0.6773 0.7357 -0.7357 0.6773 118.106 290.7969)" font-family="'Myriad-Roman'" font-size="4.7229">E</text>
		<text transform="matrix(0.7059 0.7083 -0.7083 0.7059 119.9897 292.833)" font-family="'Myriad-Roman'" font-size="4.7229">R</text>
		<text transform="matrix(0.7335 0.6797 -0.6797 0.7335 122.1177 294.9502)" font-family="'Myriad-Roman'" font-size="4.7229">F</text>
		<text transform="matrix(0.7631 0.6462 -0.6462 0.7631 124.1499 296.834)" font-family="'Myriad-Roman'" font-size="4.7229">O</text>
		<text transform="matrix(0.7922 0.6102 -0.6102 0.7922 126.9966 299.2207)" font-family="'Myriad-Roman'" font-size="4.7229">R</text>
		<text transform="matrix(0.822 0.5696 -0.5696 0.822 129.3862 301.0664)" font-family="'Myriad-Roman'" font-size="4.7229">M</text>
		<text transform="matrix(0.851 0.5252 -0.5252 0.851 132.9214 303.4854)" font-family="'Myriad-Roman'" font-size="4.7229">A</text>
		<text transform="matrix(0.8753 0.4836 -0.4836 0.8753 135.7886 305.2441)" font-family="'Myriad-Roman'" font-size="4.7229">N</text>
		<text transform="matrix(0.897 0.4419 -0.4419 0.897 138.9189 306.958)" font-family="'Myriad-Roman'" font-size="4.7228">C</text>
		<text transform="matrix(0.9147 0.4041 -0.4041 0.9147 141.8027 308.3623)" font-family="'Myriad-Roman'" font-size="4.7229">E</text>
		<text transform="matrix(0.9262 0.3772 -0.3772 0.9262 144.3359 309.4629)" font-family="'Myriad-Roman'" font-size="4.7229"> </text>
		<text transform="matrix(0.9374 0.3483 -0.3483 0.9374 145.6636 310.0117)" font-family="'Myriad-Roman'" font-size="4.7229">B</text>
		<text transform="matrix(0.9512 0.3086 -0.3086 0.9512 148.499 311.0537)" font-family="'Myriad-Roman'" font-size="4.7229">R</text>
		<text transform="matrix(0.9647 0.2635 -0.2635 0.9647 151.3716 311.9834)" font-family="'Myriad-Roman'" font-size="4.7229">O</text>
		<text transform="matrix(0.9763 0.2165 -0.2165 0.9763 154.8936 312.9307)" font-family="'Myriad-Roman'" font-size="4.7229">A</text>
		<text transform="matrix(0.9856 0.1689 -0.1689 0.9856 158.1768 313.6494)" font-family="'Myriad-Roman'" font-size="4.7229">D</text>
		<text transform="matrix(0.9925 0.122 -0.122 0.9925 161.7456 314.2451)" font-family="'Myriad-Roman'" font-size="4.7229">C</text>
		<text transform="matrix(0.9971 0.0767 -0.0767 0.9971 164.9487 314.6289)" font-family="'Myriad-Roman'" font-size="4.7229">A</text>
		<text transform="matrix(0.9994 0.0346 -0.0346 0.9994 168.292 314.8711)" font-family="'Myriad-Roman'" font-size="4.7229">S</text>
		<text transform="matrix(0.9999 -0.0162 0.0162 0.9999 171.0884 314.9717)" font-family="'Myriad-Roman'" font-size="4.7229">T</text>
		<text transform="matrix(0.9995 -0.0327 0.0327 0.9995 173.8413 314.9316)" font-family="'Myriad-Roman'" font-size="4.7229">I</text>
		<text transform="matrix(0.9977 -0.0678 0.0678 0.9977 175.4136 314.8916)" font-family="'Myriad-Roman'" font-size="4.7229">N</text>
		<text transform="matrix(0.9932 -0.1166 0.1166 0.9932 178.9888 314.6348)" font-family="'Myriad-Roman'" font-size="4.7228">G</text>
		<text transform="matrix(0.9886 -0.1507 0.1507 0.9886 182.4663 314.2041)" font-family="'Myriad-Roman'" font-size="4.7229"> </text>
		<text transform="matrix(0.983 -0.1834 0.1834 0.983 183.8936 313.9941)" font-family="'Myriad-Roman'" font-size="4.7229">A</text>
		<text transform="matrix(0.973 -0.2306 0.2306 0.973 187.1929 313.3701)" font-family="'Myriad-Roman'" font-size="4.7229">N</text>
		<text transform="matrix(0.9602 -0.2794 0.2794 0.9602 190.6851 312.5283)" font-family="'Myriad-Roman'" font-size="4.7229">D</text>
		<text transform="matrix(0.9498 -0.3128 0.3128 0.9498 194.1177 311.502)" font-family="'Myriad-Roman'" font-size="4.7229"> </text>
		<text transform="matrix(0.9392 -0.3435 0.3435 0.9392 195.4995 311.0547)" font-family="'Myriad-Roman'" font-size="4.7229">C</text>
		<text transform="matrix(0.9221 -0.3869 0.3869 0.9221 198.3979 309.9932)" font-family="'Myriad-Roman'" font-size="4.7229">O</text>
		<text transform="matrix(0.903 -0.4296 0.4296 0.903 201.8296 308.5313)" font-family="'Myriad-Roman'" font-size="4.7229">P</text>
		<text transform="matrix(0.8844 -0.4668 0.4668 0.8844 204.5088 307.2471)" font-family="'Myriad-Roman'" font-size="4.7229">Y</text>
		<text transform="matrix(0.8692 -0.4945 0.4945 0.8692 207.1445 305.834)" font-family="'Myriad-Roman'" font-size="4.7229">I</text>
		<text transform="matrix(0.851 -0.5252 0.5252 0.851 208.5259 305.0605)" font-family="'Myriad-Roman'" font-size="4.7229">N</text>
		<text transform="matrix(0.8241 -0.5665 0.5665 0.8241 211.5708 303.1641)" font-family="'Myriad-Roman'" font-size="4.7229">G</text>
		<text transform="matrix(0.8043 -0.5942 0.5942 0.8043 214.4355 301.167)" font-family="'Myriad-Roman'" font-size="4.7229"> </text>
		<text transform="matrix(0.7827 -0.6224 0.6224 0.7827 215.6079 300.3154)" font-family="'Myriad-Roman'" font-size="4.7229">O</text>
		<text transform="matrix(0.7541 -0.6568 0.6568 0.7541 218.5054 297.9844)" font-family="'Myriad-Roman'" font-size="4.7229">F</text>
		<text transform="matrix(0.7349 -0.6782 0.6782 0.7349 220.561 296.1729)" font-family="'Myriad-Roman'" font-size="4.7229"> </text>
		<text transform="matrix(0.7168 -0.6973 0.6973 0.7168 221.4727 295.3398)" font-family="'Myriad-Roman'" font-size="4.7229">T</text>
		<text transform="matrix(0.6856 -0.728 0.728 0.6856 223.4883 293.377)" font-family="'Myriad-Roman'" font-size="4.7229">H</text>
		<text transform="matrix(0.6595 -0.7517 0.7517 0.6595 225.8901 290.7881)" font-family="'Myriad-Roman'" font-size="4.7228">I</text>
		<text transform="matrix(0.6368 -0.771 0.771 0.6368 226.9243 289.6113)" font-family="'Myriad-Roman'" font-size="4.7229">S</text>
		<text transform="matrix(0.6142 -0.7891 0.7891 0.6142 228.6733 287.4727)" font-family="'Myriad-Roman'" font-size="4.7229"> </text>
		<text transform="matrix(0.59 -0.8074 0.8074 0.59 229.5522 286.3516)" font-family="'Myriad-Roman'" font-size="4.7229">R</text>
		<text transform="matrix(0.5573 -0.8303 0.8303 0.5573 231.312 283.9238)" font-family="'Myriad-Roman'" font-size="4.7229">E</text>
		<text transform="matrix(0.5223 -0.8527 0.8527 0.5223 232.8647 281.5986)" font-family="'Myriad-Roman'" font-size="4.7229">C</text>
		<text transform="matrix(0.4822 -0.8761 0.8761 0.4822 234.478 278.9619)" font-family="'Myriad-Roman'" font-size="4.7229">O</text>
		<text transform="matrix(0.4406 -0.8977 0.8977 0.4406 236.2593 275.6855)" font-family="'Myriad-Roman'" font-size="4.7229">R</text>
		<text transform="matrix(0.3989 -0.917 0.917 0.3989 237.5771 272.9922)" font-family="'Myriad-Roman'" font-size="4.7229">D</text>
		<text transform="matrix(0.3663 -0.9305 0.9305 0.3663 238.9873 269.6787)" font-family="'Myriad-Roman'" font-size="4.7229"> </text>
		<text transform="matrix(0.3469 -0.9379 0.9379 0.3469 239.5068 268.3535)" font-family="'Myriad-Roman'" font-size="4.7229">I</text>
		<text transform="matrix(0.3185 -0.9479 0.9479 0.3185 240.0479 266.8965)" font-family="'Myriad-Roman'" font-size="4.7228">S</text>
		<text transform="matrix(0.2905 -0.9569 0.9569 0.2905 240.915 264.2656)" font-family="'Myriad-Roman'" font-size="4.7229"> </text>
		<text transform="matrix(-0.1163 -0.9932 0.9932 -0.1163 243.7261 234.7925)" font-family="'Myriad-Roman'" font-size="4.7229">.</text>
		<text transform="matrix(1 0 0 1 207.395 239.5674)"><tspan x="0" y="0" font-family="'Myriad-Bold'" font-size="4.7229">STEREO  4</tspan><tspan x="24.299" y="0" font-family="'Myriad-Bold'" font-size="4.7229">5</tspan></text>
		<circle fill="none" stroke="#000000" stroke-width="2" stroke-miterlimit="10" cx="231.492" cy="237.92" r="3.942"/>
		<text transform="matrix(0.2612 -0.958 0.9659 0.259 240.9307 262.7158)" font-family="'Myriad-Roman'" font-size="4.6786">A</text>
		<text transform="matrix(0.2206 -0.9678 0.9758 0.2188 241.7393 259.3027)" font-family="'Myriad-Roman'" font-size="4.6793">L</text>
		<text transform="matrix(0.1745 -0.9769 0.9849 0.1731 242.458 256.376)" font-family="'Myriad-Roman'" font-size="4.6801">L</text>
		<text transform="matrix(0.0526 -0.9905 0.9986 0.0522 243.4146 253.3877)" font-family="'Myriad-Roman'" font-size="4.6811">O</text>
		<text transform="matrix(0.0814 -0.9886 0.9967 0.0808 243.5728 249.6626)" font-family="'Myriad-Roman'" font-size="4.6809">W</text>
		<text transform="matrix(0.0451 -0.9909 0.999 0.0447 243.667 245.0283)" font-family="'Myriad-Roman'" font-size="4.6811">E</text>
		<text transform="matrix(0.0429 -0.991 0.9991 0.0426 243.9102 242.1943)" font-family="'Myriad-Roman'" font-size="4.6811">D</text>
        <!-- fin cercle intérieur de couleur -->

        <!-- petit rond central -->
		<circle cx="171.107" cy="243.065" r="7.089"/>
        <!-- fin petit rond central -->
	</g>
</svg>
